<svg width="76" height="74" viewBox="0 0 76 74" fill="none" xmlns="http://www.w3.org/2000/svg">
<path d="M1.33265 26.5507C-1.99662 39.6359 0.91875 51.1793 10.0038 60.866C10.2402 61.1162 10.4814 61.3665 10.7223 61.6077C15.6026 66.4877 21.6813 69.5008 26.4976 71.5977C28.5649 72.5005 39.1721 73.5968 42.0421 73.1694C59.0978 70.6223 70.3219 61.0027 74.231 44.9089C74.9774 41.7564 75.3491 38.5268 75.3383 35.2871C75.3566 27.6554 72.1434 18.783 65.5167 12.138C64.8343 11.5739 64.1544 10.9895 63.4971 10.4232C62.0714 9.19753 60.5978 7.92845 59.056 6.84625C47.2785 -1.44313 35.0414 -1.48944 22.6863 2.90627C11.4999 6.88196 4.31618 14.8391 1.33265 26.5507ZM22.7342 6.82309C33.5746 2.31804 44.4516 1.52303 55.0604 8.27031C57 9.50528 62.1714 13.6849 62.9854 14.3127L63.0378 14.3512L63.0809 14.3992C67.22 18.7881 71.9592 26.8132 71.8546 35.0627C71.82 38.5901 71.3425 42.0993 70.4331 45.5078C67.7384 55.3023 61.296 62.4406 50.7374 67.3229C40.0035 72.4625 24.6101 67.2666 20.5145 64.5629C15.9877 61.4679 12.0266 57.6176 8.80452 53.1803C3.75145 46.0262 2.61777 35.7426 5.33308 26.3417C6.60369 22.001 8.82442 17.9975 11.8342 14.6215C14.8439 11.2455 18.5673 8.58163 22.7342 6.82309Z" fill="black"/>
<path d="M51.1078 34.5792C49.7654 33.4819 48.3918 32.4106 47.2254 31.5075L45.8396 30.4343C42.1974 27.6138 38.4314 24.6966 34.7024 21.8587C34.0502 21.3972 33.3336 21.0341 32.5759 20.781C31.2355 20.2912 29.9066 20.7167 29.2663 21.8424C28.3732 23.4131 27.9065 24.7538 27.8396 25.9402C27.666 29.0176 27.6312 32.1507 27.5978 35.1802C27.5856 36.2687 27.5737 37.358 27.555 38.446C27.4978 38.4707 27.4486 38.5116 27.4135 38.5633C27.3781 38.6148 27.3585 38.6756 27.3563 38.738L27.2537 41.7572C27.1559 44.6375 27.0559 47.5178 26.9534 50.3984C26.9084 51.6328 27.3141 52.4631 28.1937 52.9372C28.5546 53.1366 28.9598 53.2421 29.3721 53.2443C29.9625 53.227 30.5356 53.0401 31.0226 52.706C32.8387 51.5507 34.6554 50.3965 36.4735 49.2432C41.2011 46.2417 46.0895 43.1385 50.8814 40.0569C52.0215 39.3233 52.6531 38.428 52.7075 37.467C52.7628 36.4784 52.2099 35.4804 51.1078 34.5792ZM45.7772 37.3602L31.7394 46.5199L32.0993 27.0421C34.9481 28.9669 37.6158 31.0531 40.4289 33.2548C42.1582 34.6059 43.9408 36.0004 45.7772 37.3602Z" fill="black"/>
</svg>
