<svg width="7" height="10" viewBox="0 0 7 10" fill="none" xmlns="http://www.w3.org/2000/svg">
<path fill-rule="evenodd" clip-rule="evenodd" d="M5.84917 0.274175C6.02474 0.449957 6.12335 0.688237 6.12335 0.936675C6.12335 1.18511 6.02474 1.42339 5.84917 1.59917L2.76168 4.68668L5.84917 7.77418C5.94128 7.86 6.01516 7.9635 6.0664 8.0785C6.11764 8.1935 6.14519 8.31764 6.14742 8.44352C6.14964 8.5694 6.12648 8.69444 6.07933 8.81117C6.03218 8.92791 5.962 9.03395 5.87297 9.12297C5.78395 9.212 5.67791 9.28218 5.56117 9.32933C5.44444 9.37648 5.3194 9.39964 5.19352 9.39742C5.06764 9.3952 4.9435 9.36764 4.8285 9.3164C4.7135 9.26516 4.61 9.19129 4.52418 9.09918L0.774175 5.34918C0.598612 5.17339 0.5 4.93511 0.5 4.68668C0.5 4.43824 0.598612 4.19996 0.774175 4.02418L4.52418 0.274175C4.69996 0.0986123 4.93824 0 5.18668 0C5.43511 0 5.67339 0.0986123 5.84917 0.274175Z" fill="#919498"/>
</svg>
