<svg width="20" height="20" viewBox="0 0 20 20" fill="none" xmlns="http://www.w3.org/2000/svg">
<path d="M16.5834 1.92229C16.5539 1.84679 16.5024 1.78193 16.4355 1.7362C16.3686 1.69048 16.2894 1.66602 16.2084 1.66602C16.1273 1.66602 16.0482 1.69048 15.9813 1.7362C15.9144 1.78193 15.8628 1.84679 15.8334 1.92229L15.475 2.83479C15.4549 2.88637 15.4244 2.93326 15.3854 2.97254C15.3465 3.01182 15.2998 3.04266 15.2484 3.06313L14.3392 3.42313C14.2639 3.45312 14.1993 3.505 14.1539 3.57208C14.1084 3.63915 14.0841 3.71833 14.0841 3.79938C14.0841 3.88042 14.1084 3.9596 14.1539 4.02667C14.1993 4.09375 14.2639 4.14564 14.3392 4.17563L15.2484 4.53563C15.2998 4.55583 15.3465 4.58647 15.3855 4.62563C15.4245 4.66479 15.455 4.7116 15.475 4.76313L15.8334 5.67479C15.9684 6.01646 16.45 6.01646 16.5834 5.67479L16.9417 4.76229C16.962 4.71079 16.9926 4.66402 17.0318 4.62488C17.0709 4.58574 17.1177 4.55507 17.1692 4.53479L18.0784 4.17479C18.1537 4.1448 18.2182 4.09292 18.2637 4.02584C18.3092 3.95876 18.3335 3.87958 18.3335 3.79854C18.3335 3.7175 18.3092 3.63832 18.2637 3.57125C18.2182 3.50417 18.1537 3.45228 18.0784 3.42229L17.1692 3.06229C17.1176 3.04192 17.0708 3.01113 17.0316 2.97184C16.9925 2.93255 16.9619 2.88561 16.9417 2.83396L16.5834 1.92229ZM13.3609 6.77479C13.3314 6.69929 13.2799 6.63443 13.213 6.5887C13.1461 6.54298 13.0669 6.51852 12.9859 6.51852C12.9048 6.51852 12.8257 6.54298 12.7588 6.5887C12.6919 6.63443 12.6403 6.69929 12.6109 6.77479L12.48 7.10729C12.4598 7.15871 12.4293 7.20544 12.3903 7.24457C12.3513 7.28371 12.3047 7.31442 12.2534 7.33479L11.9217 7.46646C11.8464 7.49645 11.7818 7.54834 11.7364 7.61541C11.6909 7.68249 11.6666 7.76167 11.6666 7.84271C11.6666 7.92375 11.6909 8.00293 11.7364 8.07001C11.7818 8.13708 11.8464 8.18897 11.9217 8.21896L12.2534 8.34979C12.3575 8.39146 12.4392 8.47312 12.48 8.57812L12.6109 8.91062C12.745 9.25229 13.2267 9.25229 13.3609 8.91062L13.4917 8.57729C13.5119 8.52587 13.5424 8.47914 13.5814 8.44001C13.6204 8.40088 13.667 8.37017 13.7184 8.34979L14.05 8.21896C14.1253 8.18897 14.1899 8.13708 14.2354 8.07001C14.2808 8.00293 14.3052 7.92375 14.3052 7.84271C14.3052 7.76167 14.2808 7.68249 14.2354 7.61541C14.1899 7.54834 14.1253 7.49645 14.05 7.46646L13.7184 7.33479C13.667 7.31442 13.6204 7.28371 13.5814 7.24457C13.5424 7.20544 13.5119 7.15871 13.4917 7.10729L13.3609 6.77479Z" fill="#232931"/>
<path d="M10 18.3332C14.6025 18.3332 18.3334 14.6023 18.3334 9.99984C18.3334 9.614 17.755 9.54984 17.5559 9.88067C17.1311 10.5843 16.5517 11.182 15.8617 11.6286C15.1717 12.0751 14.3891 12.3588 13.5732 12.4581C12.7573 12.5574 11.9295 12.4697 11.1526 12.2017C10.3756 11.9337 9.66976 11.4924 9.08859 10.9113C8.50742 10.3301 8.06612 9.62428 7.79812 8.8473C7.53013 8.07031 7.44246 7.24253 7.54177 6.42664C7.64107 5.61076 7.92475 4.82817 8.3713 4.13816C8.81785 3.44815 9.41557 2.8688 10.1192 2.444C10.45 2.244 10.3859 1.6665 10 1.6665C5.39752 1.6665 1.66669 5.39734 1.66669 9.99984C1.66669 14.6023 5.39752 18.3332 10 18.3332Z" fill="#232931"/>
</svg>
