<svg width="18" height="18" viewBox="0 0 18 18" fill="none" xmlns="http://www.w3.org/2000/svg">
<path fill-rule="evenodd" clip-rule="evenodd" d="M9.00002 0.0415039C9.16578 0.0415039 9.32475 0.107352 9.44196 0.224562C9.55917 0.341772 9.62502 0.500744 9.62502 0.666504V1.49984C9.62502 1.6656 9.55917 1.82457 9.44196 1.94178C9.32475 2.05899 9.16578 2.12484 9.00002 2.12484C8.83426 2.12484 8.67529 2.05899 8.55808 1.94178C8.44087 1.82457 8.37502 1.6656 8.37502 1.49984V0.666504C8.37502 0.500744 8.44087 0.341772 8.55808 0.224562C8.67529 0.107352 8.83426 0.0415039 9.00002 0.0415039ZM2.66585 2.66567C2.78304 2.54863 2.94189 2.48289 3.10752 2.48289C3.27315 2.48289 3.432 2.54863 3.54919 2.66567L3.87669 2.99234C3.99059 3.11016 4.05366 3.26801 4.05232 3.43188C4.05097 3.59576 3.98532 3.75255 3.86949 3.86848C3.75366 3.98442 3.59694 4.05022 3.43306 4.05172C3.26919 4.05322 3.11128 3.9903 2.99335 3.8765L2.66585 3.549C2.54881 3.43182 2.48307 3.27296 2.48307 3.10734C2.48307 2.94171 2.54881 2.78286 2.66585 2.66567ZM15.3342 2.66567C15.4512 2.78286 15.517 2.94171 15.517 3.10734C15.517 3.27296 15.4512 3.43182 15.3342 3.549L15.0067 3.8765C14.8882 3.9869 14.7315 4.04701 14.5696 4.04415C14.4077 4.04129 14.2532 3.9757 14.1387 3.86119C14.0242 3.74668 13.9586 3.59219 13.9557 3.43027C13.9529 3.26836 14.013 3.11165 14.1234 2.99317L14.4509 2.66567C14.568 2.54863 14.7269 2.48289 14.8925 2.48289C15.0581 2.48289 15.217 2.54863 15.3342 2.66567ZM0.041687 8.99984C0.041687 8.83408 0.107535 8.67511 0.224745 8.5579C0.341956 8.44069 0.500927 8.37484 0.666687 8.37484H1.50002C1.66578 8.37484 1.82475 8.44069 1.94196 8.5579C2.05917 8.67511 2.12502 8.83408 2.12502 8.99984C2.12502 9.1656 2.05917 9.32457 1.94196 9.44178C1.82475 9.55899 1.66578 9.62484 1.50002 9.62484H0.666687C0.500927 9.62484 0.341956 9.55899 0.224745 9.44178C0.107535 9.32457 0.041687 9.1656 0.041687 8.99984ZM15.875 8.99984C15.875 8.83408 15.9409 8.67511 16.0581 8.5579C16.1753 8.44069 16.3343 8.37484 16.5 8.37484H17.3334C17.4991 8.37484 17.6581 8.44069 17.7753 8.5579C17.8925 8.67511 17.9584 8.83408 17.9584 8.99984C17.9584 9.1656 17.8925 9.32457 17.7753 9.44178C17.6581 9.55899 17.4991 9.62484 17.3334 9.62484H16.5C16.3343 9.62484 16.1753 9.55899 16.0581 9.44178C15.9409 9.32457 15.875 9.1656 15.875 8.99984ZM14.1234 14.1232C14.2405 14.0061 14.3994 13.9404 14.565 13.9404C14.7306 13.9404 14.8895 14.0061 15.0067 14.1232L15.3342 14.4507C15.3956 14.5079 15.4448 14.5769 15.479 14.6536C15.5132 14.7302 15.5315 14.813 15.533 14.8969C15.5345 14.9808 15.5191 15.0642 15.4876 15.142C15.4562 15.2198 15.4094 15.2905 15.3501 15.3499C15.2907 15.4092 15.22 15.456 15.1422 15.4874C15.0644 15.5189 14.981 15.5343 14.8971 15.5328C14.8132 15.5314 14.7304 15.513 14.6537 15.4788C14.5771 15.4447 14.5081 15.3954 14.4509 15.334L14.1234 15.0065C14.0063 14.8893 13.9406 14.7305 13.9406 14.5648C13.9406 14.3992 14.0063 14.2404 14.1234 14.1232ZM3.87669 14.1232C3.99373 14.2404 4.05947 14.3992 4.05947 14.5648C4.05947 14.7305 3.99373 14.8893 3.87669 15.0065L3.54919 15.334C3.49197 15.3954 3.42297 15.4447 3.3463 15.4788C3.26964 15.513 3.18687 15.5314 3.10296 15.5328C3.01904 15.5343 2.93568 15.5189 2.85786 15.4874C2.78003 15.456 2.70934 15.4092 2.64999 15.3499C2.59064 15.2905 2.54385 15.2198 2.51242 15.142C2.48098 15.0642 2.46555 14.9808 2.46703 14.8969C2.46851 14.813 2.48688 14.7302 2.52104 14.6536C2.5552 14.5769 2.60445 14.5079 2.66585 14.4507L2.99252 14.1232C3.05056 14.0651 3.11948 14.019 3.19533 13.9876C3.27119 13.9562 3.35249 13.94 3.4346 13.94C3.51671 13.94 3.59802 13.9562 3.67387 13.9876C3.74973 14.019 3.81865 14.0651 3.87669 14.1232ZM9.00002 15.8748C9.16578 15.8748 9.32475 15.9407 9.44196 16.0579C9.55917 16.1751 9.62502 16.3341 9.62502 16.4998V17.3332C9.62502 17.4989 9.55917 17.6579 9.44196 17.7751C9.32475 17.8923 9.16578 17.9582 9.00002 17.9582C8.83426 17.9582 8.67529 17.8923 8.55808 17.7751C8.44087 17.6579 8.37502 17.4989 8.37502 17.3332V16.4998C8.37502 16.3341 8.44087 16.1751 8.55808 16.0579C8.67529 15.9407 8.83426 15.8748 9.00002 15.8748Z" fill="#919498"/>
</svg>
