<svg width="20" height="20" viewBox="0 0 20 20" fill="none" xmlns="http://www.w3.org/2000/svg">
<path d="M15 10C15 11.3261 14.4732 12.5979 13.5355 13.5355C12.5979 14.4732 11.3261 15 10 15C8.67392 15 7.40215 14.4732 6.46447 13.5355C5.52678 12.5979 5 11.3261 5 10C5 8.67392 5.52678 7.40215 6.46447 6.46447C7.40215 5.52678 8.67392 5 10 5C11.3261 5 12.5979 5.52678 13.5355 6.46447C14.4732 7.40215 15 8.67392 15 10Z" fill="#919498"/>
<path fill-rule="evenodd" clip-rule="evenodd" d="M10 1.0415C10.1658 1.0415 10.3248 1.10735 10.442 1.22456C10.5592 1.34177 10.625 1.50074 10.625 1.6665V2.49984C10.625 2.6656 10.5592 2.82457 10.442 2.94178C10.3248 3.05899 10.1658 3.12484 10 3.12484C9.83426 3.12484 9.67529 3.05899 9.55808 2.94178C9.44087 2.82457 9.37502 2.6656 9.37502 2.49984V1.6665C9.37502 1.50074 9.44087 1.34177 9.55808 1.22456C9.67529 1.10735 9.83426 1.0415 10 1.0415ZM3.66585 3.66567C3.78304 3.54863 3.94189 3.48289 4.10752 3.48289C4.27315 3.48289 4.432 3.54863 4.54919 3.66567L4.87669 3.99234C4.99059 4.11016 5.05366 4.26801 5.05232 4.43188C5.05097 4.59576 4.98532 4.75255 4.86949 4.86848C4.75366 4.98442 4.59694 5.05022 4.43306 5.05172C4.26919 5.05322 4.11128 4.9903 3.99335 4.8765L3.66585 4.549C3.54881 4.43182 3.48307 4.27296 3.48307 4.10734C3.48307 3.94171 3.54881 3.78286 3.66585 3.66567ZM16.3342 3.66567C16.4512 3.78286 16.517 3.94171 16.517 4.10734C16.517 4.27296 16.4512 4.43182 16.3342 4.549L16.0067 4.8765C15.8882 4.9869 15.7315 5.04701 15.5696 5.04415C15.4077 5.04129 15.2532 4.9757 15.1387 4.86119C15.0242 4.74668 14.9586 4.59219 14.9557 4.43027C14.9529 4.26836 15.013 4.11165 15.1234 3.99317L15.4509 3.66567C15.568 3.54863 15.7269 3.48289 15.8925 3.48289C16.0581 3.48289 16.217 3.54863 16.3342 3.66567ZM1.04169 9.99984C1.04169 9.83408 1.10754 9.67511 1.22475 9.5579C1.34196 9.44069 1.50093 9.37484 1.66669 9.37484H2.50002C2.66578 9.37484 2.82475 9.44069 2.94196 9.5579C3.05917 9.67511 3.12502 9.83408 3.12502 9.99984C3.12502 10.1656 3.05917 10.3246 2.94196 10.4418C2.82475 10.559 2.66578 10.6248 2.50002 10.6248H1.66669C1.50093 10.6248 1.34196 10.559 1.22475 10.4418C1.10754 10.3246 1.04169 10.1656 1.04169 9.99984ZM16.875 9.99984C16.875 9.83408 16.9409 9.67511 17.0581 9.5579C17.1753 9.44069 17.3343 9.37484 17.5 9.37484H18.3334C18.4991 9.37484 18.6581 9.44069 18.7753 9.5579C18.8925 9.67511 18.9584 9.83408 18.9584 9.99984C18.9584 10.1656 18.8925 10.3246 18.7753 10.4418C18.6581 10.559 18.4991 10.6248 18.3334 10.6248H17.5C17.3343 10.6248 17.1753 10.559 17.0581 10.4418C16.9409 10.3246 16.875 10.1656 16.875 9.99984ZM15.1234 15.1232C15.2405 15.0061 15.3994 14.9404 15.565 14.9404C15.7306 14.9404 15.8895 15.0061 16.0067 15.1232L16.3342 15.4507C16.3956 15.5079 16.4448 15.5769 16.479 15.6536C16.5132 15.7302 16.5315 15.813 16.533 15.8969C16.5345 15.9808 16.5191 16.0642 16.4876 16.142C16.4562 16.2198 16.4094 16.2905 16.3501 16.3499C16.2907 16.4092 16.22 16.456 16.1422 16.4874C16.0644 16.5189 15.981 16.5343 15.8971 16.5328C15.8132 16.5314 15.7304 16.513 15.6537 16.4788C15.5771 16.4447 15.5081 16.3954 15.4509 16.334L15.1234 16.0065C15.0063 15.8893 14.9406 15.7305 14.9406 15.5648C14.9406 15.3992 15.0063 15.2404 15.1234 15.1232ZM4.87669 15.1232C4.99373 15.2404 5.05947 15.3992 5.05947 15.5648C5.05947 15.7305 4.99373 15.8893 4.87669 16.0065L4.54919 16.334C4.49197 16.3954 4.42297 16.4447 4.3463 16.4788C4.26964 16.513 4.18687 16.5314 4.10296 16.5328C4.01904 16.5343 3.93568 16.5189 3.85786 16.4874C3.78003 16.456 3.70934 16.4092 3.64999 16.3499C3.59064 16.2905 3.54385 16.2198 3.51242 16.142C3.48098 16.0642 3.46555 15.9808 3.46703 15.8969C3.46851 15.813 3.48688 15.7302 3.52104 15.6536C3.5552 15.5769 3.60445 15.5079 3.66585 15.4507L3.99252 15.1232C4.05056 15.0651 4.11948 15.019 4.19533 14.9876C4.27119 14.9562 4.35249 14.94 4.4346 14.94C4.51671 14.94 4.59802 14.9562 4.67387 14.9876C4.74973 15.019 4.81865 15.0651 4.87669 15.1232ZM10 16.8748C10.1658 16.8748 10.3248 16.9407 10.442 17.0579C10.5592 17.1751 10.625 17.3341 10.625 17.4998V18.3332C10.625 18.4989 10.5592 18.6579 10.442 18.7751C10.3248 18.8923 10.1658 18.9582 10 18.9582C9.83426 18.9582 9.67529 18.8923 9.55808 18.7751C9.44087 18.6579 9.37502 18.4989 9.37502 18.3332V17.4998C9.37502 17.3341 9.44087 17.1751 9.55808 17.0579C9.67529 16.9407 9.83426 16.8748 10 16.8748Z" fill="#919498"/>
</svg>
