<svg width="18" height="19" viewBox="0 0 18 19" fill="none" xmlns="http://www.w3.org/2000/svg">
<path fill-rule="evenodd" clip-rule="evenodd" d="M15.364 0.0581055C15.5629 0.0581055 15.7537 0.137123 15.8943 0.277775C16.035 0.418428 16.114 0.609193 16.114 0.808105V5.05011C16.114 5.24902 16.035 5.43978 15.8943 5.58044C15.7537 5.72109 15.5629 5.80011 15.364 5.80011H11.121C10.9221 5.80011 10.7313 5.72109 10.5907 5.58044C10.45 5.43978 10.371 5.24902 10.371 5.05011C10.371 4.85119 10.45 4.66043 10.5907 4.51978C10.7313 4.37912 10.9221 4.30011 11.121 4.30011H13.481C12.127 3.2361 10.4385 2.6887 8.7178 2.7559C6.99707 2.8231 5.35643 3.5005 4.08954 4.66687C2.82265 5.83323 2.01222 7.4124 1.80331 9.12172C1.5944 10.831 2.00065 12.5589 2.94935 13.9961C3.89805 15.4332 5.32725 16.4858 6.98115 16.9654C8.63504 17.4451 10.4056 17.3204 11.976 16.6138C13.5464 15.9072 14.8141 14.6648 15.5521 13.1089C16.2901 11.553 16.4503 9.7853 16.004 8.1221C15.9786 8.0269 15.9722 7.92762 15.9851 7.82993C15.9981 7.73225 16.0302 7.63807 16.0795 7.55278C16.1289 7.46749 16.1945 7.39275 16.2728 7.33284C16.351 7.27293 16.4403 7.22902 16.5355 7.20361C16.6307 7.17819 16.73 7.17179 16.8277 7.18474C16.9254 7.1977 17.0195 7.22977 17.1048 7.27913C17.1901 7.32848 17.2648 7.39415 17.3248 7.47239C17.3847 7.55063 17.4286 7.6399 17.454 7.73511C17.9953 9.7531 17.7966 11.8982 16.8939 13.7824C15.9912 15.6667 14.4441 17.1658 12.5323 18.0085C10.6205 18.8513 8.47018 18.9822 6.47027 18.3775C4.47036 17.7728 2.75284 16.4724 1.62829 14.7116C0.503734 12.9507 0.0463837 10.8455 0.33894 8.77679C0.631496 6.70804 1.65465 4.81226 3.22337 3.43226C4.7921 2.05226 6.80285 1.27914 8.89201 1.2527C10.9812 1.22626 13.0108 1.94825 14.614 3.28811V0.808105C14.614 0.609193 14.693 0.418428 14.8337 0.277775C14.9743 0.137123 15.1651 0.0581055 15.364 0.0581055Z" fill="#919498"/>
</svg>
