<svg width="24" height="21" viewBox="0 0 24 21" fill="none" xmlns="http://www.w3.org/2000/svg">
<g filter="url(#filter0_d_2409_357)">
<path fill-rule="evenodd" clip-rule="evenodd" d="M18.364 0.0581055C18.5629 0.0581055 18.7537 0.137123 18.8944 0.277775C19.035 0.418428 19.114 0.609193 19.114 0.808105V5.05011C19.114 5.24902 19.035 5.43978 18.8944 5.58044C18.7537 5.72109 18.5629 5.80011 18.364 5.80011H14.121C13.9221 5.80011 13.7313 5.72109 13.5907 5.58044C13.45 5.43978 13.371 5.24902 13.371 5.05011C13.371 4.85119 13.45 4.66043 13.5907 4.51978C13.7313 4.37912 13.9221 4.30011 14.121 4.30011H16.481C15.127 3.2361 13.4386 2.6887 11.7178 2.7559C9.9971 2.8231 8.35646 3.5005 7.08957 4.66687C5.82268 5.83323 5.01225 7.4124 4.80334 9.12172C4.59443 10.831 5.00068 12.5589 5.94938 13.9961C6.89808 15.4332 8.32728 16.4858 9.98118 16.9654C11.6351 17.4451 13.4057 17.3204 14.9761 16.6138C16.5465 15.9072 17.8141 14.6648 18.5521 13.1089C19.2901 11.553 19.4503 9.7853 19.004 8.1221C18.9786 8.0269 18.9722 7.92762 18.9852 7.82993C18.9981 7.73225 19.0302 7.63807 19.0795 7.55278C19.1289 7.46749 19.1946 7.39275 19.2728 7.33284C19.351 7.27293 19.4403 7.22902 19.5355 7.20361C19.6307 7.17819 19.73 7.17179 19.8277 7.18474C19.9254 7.1977 20.0196 7.22977 20.1048 7.27913C20.1901 7.32848 20.2649 7.39415 20.3248 7.47239C20.3847 7.55063 20.4286 7.6399 20.454 7.73511C20.9953 9.7531 20.7966 11.8982 19.8939 13.7824C18.9913 15.6667 17.4441 17.1658 15.5323 18.0085C13.6205 18.8513 11.4702 18.9822 9.4703 18.3775C7.47039 17.7728 5.75287 16.4724 4.62832 14.7116C3.50376 12.9507 3.04641 10.8455 3.33897 8.77679C3.63153 6.70804 4.65468 4.81226 6.2234 3.43226C7.79213 2.05226 9.80288 1.27914 11.892 1.2527C13.9812 1.22626 16.0109 1.94825 17.614 3.28811V0.808105C17.614 0.609193 17.693 0.418428 17.8337 0.277775C17.9743 0.137123 18.1651 0.0581055 18.364 0.0581055Z" fill="#919498"/>
</g>
<defs>
<filter id="filter0_d_2409_357" x="-0.747253" y="0.0581055" width="25.5" height="26.6938" filterUnits="userSpaceOnUse" color-interpolation-filters="sRGB">
<feFlood flood-opacity="0" result="BackgroundImageFix"/>
<feColorMatrix in="SourceAlpha" type="matrix" values="0 0 0 0 0 0 0 0 0 0 0 0 0 0 0 0 0 0 127 0" result="hardAlpha"/>
<feOffset dy="4"/>
<feGaussianBlur stdDeviation="2"/>
<feComposite in2="hardAlpha" operator="out"/>
<feColorMatrix type="matrix" values="0 0 0 0 0 0 0 0 0 0 0 0 0 0 0 0 0 0 0.25 0"/>
<feBlend mode="normal" in2="BackgroundImageFix" result="effect1_dropShadow_2409_357"/>
<feBlend mode="normal" in="SourceGraphic" in2="effect1_dropShadow_2409_357" result="shape"/>
</filter>
</defs>
</svg>
